<svg xmlns="http://www.w3.org/2000/svg" viewBox="0 0 150 77.65"><defs><style>.cls-1{fill:#0097ff;}</style></defs><g id="Capa_2" data-name="Capa 2"><g id="Capa_1-2" data-name="Capa 1"><path class="cls-1" d="M145.35,34.18H15.86L42.1,7.93a4.64,4.64,0,0,0-6.56-6.57L1.36,35.53a5.08,5.08,0,0,0-.58.72,3.47,3.47,0,0,0-.18.33,3.5,3.5,0,0,0-.25.47c-.06.15-.09.3-.14.45s-.09.27-.12.41a4.65,4.65,0,0,0,0,1.82c0,.14.08.27.12.41s.08.31.14.46.16.31.25.47.11.22.18.33a5.62,5.62,0,0,0,.58.71L35.54,76.29a4.64,4.64,0,0,0,6.56-6.57L15.86,43.47H145.35a4.65,4.65,0,1,0,0-9.29Z"/></g></g></svg>