<svg xmlns="http://www.w3.org/2000/svg" viewBox="0 0 150 150"><defs><style>.cls-1{fill:#0097ff;}.cls-2{fill:#fff;}</style></defs><g id="Capa_2" data-name="Capa 2"><g id="Capa_1-2" data-name="Capa 1"><circle class="cls-1" cx="75" cy="75" r="75"/><path class="cls-2" d="M102.41,115.5A3,3,0,0,1,99.82,114L86.45,91.08a29.62,29.62,0,1,1,5.18-3L105,111a3,3,0,0,1-1.08,4.1A2.93,2.93,0,0,1,102.41,115.5Zm-28.24-75a23.62,23.62,0,1,0,11.92,44h0a23.59,23.59,0,0,0,8.5-32.28h0A23.47,23.47,0,0,0,80.22,41.28,24.1,24.1,0,0,0,74.17,40.49Z"/></g></g></svg>